<?xml version="1.0" encoding="UTF-8"?>
<svg width="43px" height="33px" viewBox="0 0 43 33" version="1.1" xmlns="http://www.w3.org/2000/svg" xmlns:xlink="http://www.w3.org/1999/xlink">
    <!-- Generator: Sketch 52.4 (67378) - http://www.bohemiancoding.com/sketch -->
    <title>logo</title>
    <desc>Created with Sketch.</desc>
    <g id="Page-1" stroke="none" stroke-width="1" fill="none" fill-rule="evenodd">
        <g id="logo">
            <ellipse id="Oval-2" fill="#D32F2F" cx="13.457887" cy="16.1076923" rx="13.457887" ry="13.5020362"></ellipse>
            <path d="M11.2961011,11.4833208 C10.8592967,12.9480595 10.6246476,14.5003834 10.6246476,16.1076923 C10.6246476,18.9482111 11.3574982,21.617002 12.6438525,23.9341298 L14.4156369,21.9633769 C13.6484949,20.2481409 13.2217837,18.3463509 13.2217837,16.3445701 C13.2217837,15.155368 13.3723794,14.0014547 13.655481,12.9009793 L11.2961011,11.4833208 Z M12.3264291,8.88264769 C14.3832667,4.77773034 18.1380834,1.67666911 22.665915,0.507462719 L22.665915,3.28012244 C19.5232332,4.30847892 16.8802859,6.44647238 15.1967824,9.23288554 L12.3264291,8.88264769 Z M14.271373,26.3299754 C16.9323945,29.5774945 20.8352705,31.7619709 25.2515125,32.1525263 L24.7744678,29.9165012 C21.5025989,29.40103 18.6152369,27.7232029 16.5454378,25.3174966 L14.271373,26.3299754 Z M28.1086533,32.1524534 C33.2512309,31.6973972 37.6976086,28.8097961 40.2974482,24.6437621 L38.2926015,23.9940192 C36.1247371,27.2330076 32.6190741,29.495274 28.5695037,29.9843227 L28.1086533,32.1524534 Z M41.60892,22.0447821 C42.3353923,20.2075651 42.7346939,18.2044126 42.7346939,16.1076923 C42.7346939,13.2822929 42.0096241,10.6267981 40.7359828,8.31828513 L39.1027028,10.072414 C40.0660435,11.952718 40.6097643,14.0849394 40.6097643,16.3445701 C40.6097643,17.8133678 40.3800305,19.2283322 39.9546467,20.5552677 L41.60892,22.0447821 Z M39.1456364,5.95619367 C36.201908,2.32201423 31.7110704,0 26.6796708,0 C26.2613952,0 25.8468555,0.0160476784 25.43663,0.0475628355 L26.5796889,2.60971288 C26.691391,2.60701352 26.8034245,2.60565611 26.915774,2.60565611 C30.8416166,2.60565611 34.3816127,4.26308127 36.8785158,6.91852925 L39.1456364,5.95619367 Z" id="Combined-Shape" fill="#222222" fill-rule="nonzero"></path>
        </g>
    </g>
</svg>